<svg width="646" height="854" viewBox="102.6 346.3 440.9 229.3" fill="none" xmlns="http://www.w3.org/2000/svg">

<path d="M313.498 358.237C300.195 359.525 296.579 360.015 290.203 361.303C279.843 363.448 265.989 368.23 256.365 372.95C222.895 389.317 199.846 416.596 192.796 448.166C191.386 454.419 191.202 456.503 191.202 467.047C191.202 477.468 191.386 479.736 192.735 485.682C202.114 526.938 240.12 557.405 289.284 562.983C299.95 564.148 346.049 564.148 356.715 562.983C396.193 558.508 430.154 537.114 445.418 507.076C449.463 499.046 451.425 493.835 453.264 485.682C454.613 479.736 454.797 477.468 454.797 467.047C454.797 456.503 454.613 454.419 453.203 448.166C442.965 402.313 398.461 366.207 343.903 359.341C336.792 358.483 318.157 357.747 313.498 358.237ZM336.424 391.585C354.631 393.547 372.96 400.045 387.672 409.853C395.58 415.125 406.737 426.159 411.518 433.393C417.403 442.342 420.774 451.476 422.307 462.572C422.981 467.66 422.614 471.522 420.774 479.736C417.893 491.996 408.943 504.808 396.867 513.758C391.227 517.865 379.519 523.812 372.347 526.141C358.738 530.493 349.849 531.29 318.095 531.045C297.376 530.861 293.697 530.677 287.751 529.574C267.461 525.773 251.4 517.681 239.753 505.36C230.312 495.429 226.021 486.357 223.692 471.706C222.65 464.901 224.611 453.622 228.596 444.12C233.439 432.534 245.944 418.129 258.327 409.853C272.671 400.29 291.552 393.486 308.9 391.647C315.582 390.911 329.742 390.911 336.424 391.585Z" fill="black"/>
<path d="M299.584 436.336C294.925 438.849 291.676 445.224 292.657 449.944C293.76 455.032 298.235 460.182 305.223 464.412C308.963 466.68 309.208 466.986 309.392 469.254C309.514 470.603 309.024 474.465 308.35 477.898C307.614 481.269 307.062 484.825 307.062 485.806C307.124 488.442 309.576 492.733 312.15 494.817C314.419 496.656 314.848 496.717 321.223 496.901C327.047 497.085 328.273 496.962 330.602 495.859C336.61 492.916 338.142 487.522 335.935 477.162C334.096 468.519 334.464 467.17 339.062 464.534C343.904 461.714 349.054 456.749 350.586 453.377C353.529 446.941 350.831 439.646 344.333 436.274C342.74 435.477 340.778 435.11 337.897 435.11C333.422 435.11 330.541 436.152 325.269 439.523L322.265 441.424L320.365 440.259C312.58 435.661 311.17 435.11 306.449 435.171C303.078 435.171 301.239 435.477 299.584 436.336Z" fill="black"/>
<path d="M150.744 365.165C139.894 368.598 131.802 376.567 127.634 387.908C125.611 393.303 124.63 401.824 125.488 406.421C127.511 417.394 136.522 427.386 146.76 430.145C159.633 433.516 169.257 431.309 177.778 422.85C182.743 418.007 185.441 413.777 188.138 406.911C190.099 402.069 190.222 401.211 190.222 394.345L190.283 386.989L187.709 381.717C183.601 373.38 176.184 367.188 167.602 364.92C162.759 363.694 154.974 363.756 150.744 365.165Z" fill="black"/>
<path d="M478.153 364.982C469.755 367.25 462.276 373.502 458.291 381.717L455.717 386.989L455.778 394.345C455.778 401.211 455.901 402.069 457.862 406.911C460.56 413.777 463.257 418.007 468.222 422.85C476.743 431.309 486.367 433.516 499.241 430.145C506.658 428.183 514.075 421.93 517.631 414.635C520.696 408.444 521.431 403.969 520.451 396.919C518.183 380.797 508.742 369.089 494.704 364.982C490.597 363.756 482.628 363.756 478.153 364.982Z" fill="black"/>
</svg>
