<svg xmlns="http://www.w3.org/2000/svg" viewBox="0 0 714.9 715">
  <path fill="#FFFFFF" d="M15.1,449.7c39.9,0,94.9-.4,131.7-.4,8.1-10.8,16.8-20.8,24.3-27,24.9-20.6,58.1-28.5,89.3-19.2,66.5,19.7,88.3,102.8,32,147.1-8.9,7-17.2,14.8-30.6,18.4v127.8h203v-127.9s-40.8-13.2-51.7-32.2c-39.7-48.4-11.2-125.4,51.7-134.7v-93.4c-11.8-1.7-22.7-7-32.4-13.8-60.5-42.5-43.6-130,26.7-150.8,30.7-9.1,67.3-1.4,90.7,20.8,7.2,7.2,23.7,29.9,25.6,33.3h122.4c-.9-20.8-5.4-41.9-12.8-61.3-6.3-16.7-15.1-32.4-25.8-46.7-8.9-11.9-19.3-22.9-30.8-32.3-60.8-49.1-131.8-44-205.3-43.9h-161.3v126.3c44.5,25.7,62.5,52,63.9,81.9,2.4,99-148.8,121.8-180,29.3-12-62.4,24.3-100.1,66-111.2V13.5c-22.9,0-45.6,2.8-67.4,10.4-17.6,6.1-34.1,14.6-49.3,25.4-12.1,8.5-23.2,18.6-32.9,29.7C9.8,139.1,15,212.6,15,287v162.2M514.8,696.3c21.9-1.7,42.5-5.7,63-13.9,16.8-6.7,32.4-15.6,46.7-26.7,77-59.7,73.3-146.4,73.3-234.1v-175.1h-122.4c-18.3,32.8-32.5,45.8-60.6,61.8v93.4c21,12.1,33.4,17.3,46.1,33.3,36,46.5,11.6,119.8-46.1,133.5M15.1,499c0,111,85.7,197.3,196.7,197.3,0-42.8.1-85.8,0-127.8-7.4-2-21.2-7.8-27.4-11.8-19.6-12.4-35.5-33.6-37.6-57.7H15.1Z"/>
</svg>
