<svg xmlns="http://www.w3.org/2000/svg" viewBox="0 0 512 512">
  <defs>
    <style>
      .cls-1 { fill: #36c7ff; }
      .cls-1, .cls-2, .cls-3, .cls-4 { stroke-width: 0px; }
      .cls-2 { fill: #e93e63; fill-rule: evenodd; }
      .cls-3 { fill: #1fcbb9; fill-rule: evenodd; }
      .cls-4 { fill: #fa9300; }
    </style>
  </defs>
  <g>
    <path class="cls-2" d="M129.6,245c64.3,0,116.4-52.1,116.4-116.4S193.9,12.2,129.6,12.2,13.2,64.3,13.2,128.6s52.1,116.4,116.4,116.4ZM129.6,255.2c69.9,0,126.6-56.7,126.6-126.6S199.5,2,129.6,2,3,58.7,3,128.6s56.7,126.6,126.6,126.6Z"/>
    <path class="cls-2" d="M129,196.9c38.1,0,68.9-30.9,68.9-68.9s-30.9-68.9-68.9-68.9-68.9,30.9-68.9,68.9,30.9,68.9,68.9,68.9ZM129,207.1c43.7,0,79.1-35.4,79.1-79.1s-35.4-79.1-79.1-79.1S49.9,84.3,49.9,127.9s35.4,79.1,79.1,79.1Z"/>
    <path class="cls-2" d="M129.6,150.1c11.9,0,21.5-9.6,21.5-21.5s-9.6-21.5-21.5-21.5-21.5,9.6-21.5,21.5,9.6,21.5,21.5,21.5ZM129.6,160.2c17.5,0,31.6-14.2,31.6-31.6s-14.2-31.6-31.6-31.6-31.6,14.2-31.6,31.6,14.2,31.6,31.6,31.6Z"/>
  </g>
  <path class="cls-3" d="M494.8,147.8h-112.2c-10.5,0-19-8.5-19-19s8.5-19,19-19h126.4v-12.6h-126.4c-17.4,0-31.6,14.1-31.6,31.6s14.1,31.6,31.6,31.6h126.4v-12.6h-14.2ZM382,61.9c-36.6,0-66.3,29.7-66.3,66.3s29.7,66.3,66.3,66.3h127v12.6h-126.4c-.2,0-.4,0-.6,0-43.6,0-79-35.4-79-79s35.4-79,79-79,.4,0,.6,0h0s81.2,0,81.2,0h45.1v12.6h-127ZM268.9,128.9c0-62.8,50.9-113.7,113.7-113.7h126.4V2.5h-126.4c-69.8,0-126.4,56.6-126.4,126.4s56.6,126.4,126.4,126.4h126.4v-12.6h-126.4c-62.8,0-113.7-50.9-113.7-113.7Z"/>
  <g>
    <path class="cls-1" d="M156.6,458.8c31.1,0,56.4-25.3,56.4-56.5s-25.2-56.5-56.4-56.5h-57.1v12.6h57.1c24.2,0,43.9,19.7,43.9,44s-19.6,44-43.9,44h-49.5c-49.1,0-89-39.9-89-89.2s39.8-89.2,89-89.2h148.5v-12.6H107.1c-56.1,0-101.5,45.6-101.5,101.8s21.3,71.9,52.6,89.2H3v12.6h153.5Z"/>
    <path class="cls-1" d="M204.2,313h51.4v-12.6H107.1c-30.6.7-55.1,25.7-55.1,56.5s25.2,56.5,56.4,56.5h53.9v-12.6h-53.9c-24.2,0-43.9-19.7-43.9-44s19.6-44,43.9-44h47c49.1,0,89,39.9,89,89.2s-39.8,89.2-89,89.2H3v12.6h153.5c55.5-.7,100.3-46,100.3-101.8s-21.3-71.9-52.6-89.2Z"/>
  </g>
  <g>
    <rect class="cls-4" x="495.4" y="496.5" width="12.6" height="12.6"/>
    <polygon class="cls-4" points="509 255.2 268.2 255.2 255.6 255.2 255.6 267.8 255.6 510 268.2 510 268.2 267.8 509 267.8 509 255.2"/>
    <polygon class="cls-4" points="508.5 302.7 316.6 302.7 304 302.7 304 302.7 304 315.3 304 315.3 304 509.2 316.6 509.2 316.6 315.3 508.5 315.3 508.5 302.7"/>
    <polygon class="cls-4" points="508.3 350.9 364.8 351.6 364.8 351.6 352.2 351.6 352.2 351.6 352.2 364.2 352.2 509.2 364.8 509.2 364.8 364.2 508.3 363.5 508.3 350.9"/>
    <polygon class="cls-4" points="508.5 400.4 401.4 400.4 401.4 400.4 401.4 413.1 401.4 509.2 414 509.2 414 413.1 508.5 413.1 508.5 400.4"/>
    <polygon class="cls-4" points="508 447.4 461.3 447.4 448.7 447.4 448.7 460 448.7 509.2 461.3 509.2 461.3 460 508 460 508 447.4"/>
  </g>
</svg>
