<svg xmlns="http://www.w3.org/2000/svg" viewBox="0 0 23 27">
  <path fill="#FFFFFF" d="M22.7951 16.4034C22.7278 16.0985 22.5741 15.8178 22.3367 15.5691C22.2453 15.4734 22.1437 15.3828 22.0332 15.3012C21.9799 15.2616 21.9227 15.2246 21.8643 15.1876C21.792 15.1417 21.717 15.0983 21.6345 15.0562C21.3323 14.9006 21.0745 14.7437 20.8485 14.5753C20.7571 14.5077 20.6682 14.4363 20.5844 14.3635C20.3825 14.1862 20.2467 14.0344 20.1451 13.8737C20.1121 13.8227 20.0829 13.7665 20.0549 13.7129C20.0435 13.69 20.0257 13.6708 20.0054 13.6555C19.9686 13.6287 19.9216 13.6173 19.8746 13.6249C19.8022 13.639 19.7464 13.6976 19.7375 13.7716C19.7311 13.829 19.7311 13.8903 19.7388 13.9528C19.7438 13.9898 19.7235 14.0255 19.6892 14.0408C19.6816 14.0446 19.6727 14.0459 19.6651 14.0472C19.6169 14.0523 19.5737 14.0791 19.5458 14.1199C19.5178 14.1607 19.5102 14.2105 19.5216 14.2577C19.5318 14.2985 19.5458 14.3278 19.5572 14.3508L19.5673 14.3725C19.575 14.3865 19.5826 14.4018 19.5902 14.4158C19.6131 14.4592 19.6359 14.5026 19.6638 14.5434C19.7172 14.6212 19.7769 14.6991 19.848 14.782C19.8708 14.8088 19.8746 14.847 19.8581 14.8776C19.8416 14.9083 19.8073 14.9261 19.773 14.921C19.3731 14.8662 19.0137 14.7756 18.6798 14.6518C18.6417 14.6378 18.6023 14.6238 18.5655 14.6085C18.2658 14.4809 18.8068 13.94 19.0544 13.556C20.14 11.8785 20.3647 9.95731 20.3736 8.01316C20.3825 6.13406 20.1806 4.28049 19.8086 2.45115V2.44859C19.5661 0.915214 19.3604 0.339878 19.2309 0.126838C19.2029 0.0707072 19.1725 0.0349878 19.1407 0.0184038C19.1052 -0.00583428 19.0861 0.00564694 19.0861 0.00564694C19.0163 0.00819832 18.9363 0.0707072 18.8398 0.171487C18.4347 0.598843 18.4576 1.10784 18.5693 1.63981C19.081 4.05596 19.4658 6.48616 19.2905 8.96865C19.1699 10.6806 18.8525 12.3288 17.6614 13.6696C17.5903 13.7499 17.5129 13.8252 17.4354 13.9017C17.3465 13.9898 17.2081 14.1607 17.1053 14.0893C16.9682 13.9936 17.0901 13.7971 17.1332 13.6951C17.8303 12.0533 18.0309 10.3375 17.9243 8.56936C17.9217 8.52853 17.9179 8.48771 17.9154 8.44689V8.44434C17.9141 8.41117 17.9103 8.38056 17.9078 8.34866C17.89 8.11521 17.8684 7.88176 17.8392 7.64958C17.5396 4.84434 17.1789 4.66192 17.1789 4.66192C17.1548 4.64023 17.1256 4.62365 17.0862 4.61599C16.8971 4.57645 16.7942 4.74356 16.7104 4.86985C16.332 5.43881 16.4996 6.04477 16.6215 6.64434C17.0494 8.74413 17.0558 10.8248 16.3219 12.8672C16.2546 13.0534 16.1746 13.2346 16.0895 13.4132C15.9993 13.6032 15.9409 13.8405 15.6336 13.7385C15.3454 13.6428 15.4267 13.4234 15.4635 13.2231C15.56 12.7141 15.6375 12.2038 15.6857 11.6922V11.6948C15.6921 11.6438 15.6946 11.5953 15.6984 11.5468C15.706 11.4588 15.7111 11.3695 15.7162 11.2815C15.72 11.2075 15.7238 11.1348 15.7276 11.0633C15.7289 11.0263 15.7314 10.9906 15.7314 10.9536C15.7898 9.33222 15.5181 8.59487 15.4153 8.37673C15.4038 8.34994 15.3911 8.3257 15.3772 8.30401C15.2705 8.14328 15.094 8.16241 14.9416 8.31422C14.661 8.59232 14.5061 8.92145 14.5772 9.33605C14.7855 10.5429 14.6636 11.7382 14.4401 12.9271C14.4096 13.0866 14.3385 13.3774 13.9995 13.3022C13.7684 13.2511 13.7151 13.1516 13.7024 12.9501C13.7049 12.7983 13.7024 12.6465 13.6973 12.4947C13.6973 12.4908 13.6973 12.487 13.6973 12.4832C13.6973 12.4615 13.6947 12.4398 13.6947 12.4194C13.6947 12.4079 13.6935 12.3977 13.6922 12.3875C13.682 12.1808 13.6655 11.9729 13.6401 11.765C13.6376 11.7446 13.6338 11.7254 13.6312 11.705C13.5017 10.5339 13.3329 10.4204 13.3329 10.4204C13.2249 10.2788 13.0561 10.303 12.91 10.4484C12.6294 10.7266 12.4872 11.0544 12.5456 11.4703C12.5888 11.7739 12.5774 11.6808 12.6078 11.9461C12.632 12.0826 12.6573 12.3314 12.6599 12.4105C12.6535 12.4806 12.6358 12.5419 12.5926 12.5878C12.4491 12.7421 12.218 12.584 12.0428 12.5112C8.64493 11.0991 5.73719 9.11663 3.19896 6.60862C2.20347 5.58424 0.503273 3.51635 0.503273 3.51635C0.439785 3.44236 0.361061 3.40026 0.240434 3.45256C0.0182272 3.54824 0.024576 3.83399 0.00425995 4.07382C-0.0363721 4.55476 0.220118 4.90302 0.498194 5.2296C4.33158 9.72258 9.00935 12.9514 14.6559 14.5664L15.6717 14.8368C15.6832 14.8394 15.6959 14.8432 15.7073 14.8458C15.7098 14.8458 15.7111 14.8458 15.7124 14.847L16.5872 15.0805L16.6114 15.0869C16.5822 15.0958 16.5504 15.1022 16.5161 15.1085C15.5537 15.2999 13.649 14.9478 12.119 14.5893C11.3622 14.4299 10.6181 14.236 9.89056 14.0051C9.85754 13.9949 9.8385 13.9898 9.8385 13.9898C7.01203 13.0853 4.423 11.6195 2.15776 9.38452C1.94317 9.17276 1.74509 8.94441 1.54955 8.71351C1.37051 8.4992 1.00102 8.05143 0.872771 7.89707C0.858804 7.87666 0.843567 7.8588 0.82833 7.84221C0.790237 7.80267 0.743256 7.77715 0.675959 7.79246C0.51851 7.82946 0.472799 7.99274 0.443594 8.13052C0.328047 8.68417 0.503273 9.1498 0.874041 9.56567C3.19388 12.1783 6.10542 13.8469 9.37504 14.9414C11.2314 15.5627 13.1411 15.9403 15.0889 16.1814C13.9271 16.559 12.7323 16.6738 11.5273 16.6432C9.19473 16.5845 7.00695 16.0219 4.95122 15.018C4.19317 14.6263 3.48719 14.19 3.30181 14.0727C3.19515 14 3.08468 13.9553 2.97548 14.0395C2.77105 14.199 2.91199 14.4784 2.97802 14.6965C3.10373 15.1162 3.3945 15.4058 3.77162 15.6061C7.12123 17.3857 10.6575 18.0975 14.4223 17.466C14.8032 17.4022 15.1651 17.3321 15.5638 17.1969C14.934 17.7441 14.2052 18.1013 13.4395 18.3832C11.0816 19.2494 8.73889 19.215 6.40508 18.6282C5.65593 18.4266 4.78742 18.0988 4.78742 18.0988C4.66171 18.0439 4.53728 18.0248 4.44078 18.1638C4.27063 18.4088 4.41919 18.6639 4.56648 18.8948C4.91439 19.4395 5.58736 19.4931 6.11939 19.6781C6.30096 19.7368 5.80576 20.0684 5.64704 20.1909C4.87503 20.7841 4.11953 21.3263 3.35133 21.9003L2.84851 22.2728C2.76216 22.3328 2.68598 22.4004 2.72534 22.5254C2.77105 22.667 2.91707 22.6925 3.05929 22.7219C3.60909 22.8367 4.0789 22.653 4.51315 22.3264C5.44388 21.626 6.39239 20.9461 7.3028 20.219C7.64944 19.9421 7.96434 19.9651 8.43796 20.0876C7.25328 20.9844 6.14479 21.8251 5.03502 22.6645C3.90875 23.5153 2.78248 24.3662 1.65621 25.2158L0.912133 25.7695C0.900706 25.7771 0.890548 25.7848 0.88039 25.7937L0.868962 25.8014C0.805474 25.8524 0.758493 25.9098 0.772461 25.9838C0.802935 26.1522 0.999746 26.1943 1.16101 26.2224C1.82636 26.3372 2.23903 26.0859 2.6936 25.7427C4.97026 24.0256 7.25455 22.32 9.51852 20.5864C10.0264 20.1973 10.5483 19.9779 11.2809 20.0608C10.6575 20.529 10.0582 20.9793 9.46773 21.4232L7.86276 22.616C7.85133 22.6236 7.83991 22.6326 7.82975 22.6415C7.74467 22.7091 7.685 22.7882 7.71801 22.9056C7.77896 23.1186 8.03418 23.1441 8.25131 23.1773C8.65001 23.2372 8.98776 23.0956 9.30139 22.8609C9.4817 22.7257 9.66327 22.593 9.84484 22.4616L12.2955 20.506C12.2955 20.506 12.8745 20.0901 13.5449 19.7087C13.6046 19.6717 13.6643 19.6334 13.7252 19.5964C13.7506 19.5849 13.8141 19.5556 13.9106 19.5097C13.983 19.4727 14.0553 19.4357 14.1265 19.4012C14.2318 19.3477 14.3537 19.2826 14.4909 19.2073C14.8858 19.0428 16.0171 18.5121 16.9517 17.5119C17.3961 17.1675 18.0221 16.7172 18.5096 16.5003H18.5122C18.549 16.4837 18.5858 16.4684 18.6214 16.4557C18.6214 16.4557 18.6239 16.4557 18.6252 16.4544C18.6493 16.4455 18.6722 16.4378 18.695 16.4302L18.7572 16.4059C18.9337 16.3562 19.2207 16.337 19.2588 16.7274C19.2651 16.8231 19.2639 16.9213 19.2524 17.0246C19.2448 17.1024 19.2296 17.1854 19.2182 17.2517C19.2067 17.3155 19.2334 17.3793 19.2842 17.4175C19.2918 17.4239 19.3007 17.429 19.3096 17.4329C19.3769 17.466 19.4581 17.4507 19.5089 17.3946C19.528 17.3742 19.547 17.3525 19.5661 17.3321C19.8061 17.0782 20.0499 16.9022 20.3089 16.795C20.6873 16.6381 21.0707 16.6368 21.4783 16.7937C21.6726 16.8677 21.8554 16.9698 22.037 17.1037C22.1145 17.1611 22.1919 17.2249 22.2694 17.2951C22.3151 17.3372 22.3608 17.3831 22.4014 17.4239L22.4078 17.4303L22.4408 17.4635C22.4408 17.4635 22.4535 17.475 22.4598 17.4801C22.4979 17.5081 22.5475 17.5196 22.5957 17.5094C22.6516 17.4966 22.6973 17.4571 22.7176 17.4035C22.7214 17.3933 22.7252 17.3831 22.729 17.3729C22.8446 17.0285 22.8687 16.7121 22.8014 16.4034H22.7951Z"/>
</svg>
