<svg xmlns="http://www.w3.org/2000/svg" width="140" height="30" viewBox="0 0 140 30" fill="none"><path d="M22.7951 16.4034C22.7278 16.0985 22.5741 15.8178 22.3367 15.5691C22.2453 15.4734 22.1437 15.3828 22.0332 15.3012C21.9799 15.2616 21.9227 15.2246 21.8643 15.1876C21.792 15.1417 21.717 15.0983 21.6345 15.0562C21.3323 14.9006 21.0745 14.7437 20.8485 14.5753C20.7571 14.5077 20.6682 14.4363 20.5844 14.3635C20.3825 14.1862 20.2467 14.0344 20.1451 13.8737C20.1121 13.8227 20.0829 13.7665 20.0549 13.7129C20.0435 13.69 20.0257 13.6708 20.0054 13.6555C19.9686 13.6287 19.9216 13.6173 19.8746 13.6249C19.8022 13.639 19.7464 13.6976 19.7375 13.7716C19.7311 13.829 19.7311 13.8903 19.7388 13.9528C19.7438 13.9898 19.7235 14.0255 19.6892 14.0408C19.6816 14.0446 19.6727 14.0459 19.6651 14.0472C19.6169 14.0523 19.5737 14.0791 19.5458 14.1199C19.5178 14.1607 19.5102 14.2105 19.5216 14.2577C19.5318 14.2985 19.5458 14.3278 19.5572 14.3508L19.5673 14.3725C19.575 14.3865 19.5826 14.4018 19.5902 14.4158C19.6131 14.4592 19.6359 14.5026 19.6638 14.5434C19.7172 14.6212 19.7769 14.6991 19.848 14.782C19.8708 14.8088 19.8746 14.847 19.8581 14.8776C19.8416 14.9083 19.8073 14.9261 19.773 14.921C19.3731 14.8662 19.0137 14.7756 18.6798 14.6518C18.6417 14.6378 18.6023 14.6238 18.5655 14.6085C18.2658 14.4809 18.8068 13.94 19.0544 13.556C20.14 11.8785 20.3647 9.95731 20.3736 8.01316C20.3825 6.13406 20.1806 4.28049 19.8086 2.45115V2.44859C19.5661 0.915214 19.3604 0.339878 19.2309 0.126838C19.2029 0.0707072 19.1725 0.0349878 19.1407 0.0184038C19.1052 -0.00583428 19.0861 0.00564694 19.0861 0.00564694C19.0163 0.00819832 18.9363 0.0707072 18.8398 0.171487C18.4347 0.598843 18.4576 1.10784 18.5693 1.63981C19.081 4.05596 19.4658 6.48616 19.2905 8.96865C19.1699 10.6806 18.8525 12.3288 17.6614 13.6696C17.5903 13.7499 17.5129 13.8252 17.4354 13.9017C17.3465 13.9898 17.2081 14.1607 17.1053 14.0893C16.9682 13.9936 17.0901 13.7971 17.1332 13.6951C17.8303 12.0533 18.0309 10.3375 17.9243 8.56936C17.9217 8.52853 17.9179 8.48771 17.9154 8.44689V8.44434C17.9141 8.41117 17.9103 8.38056 17.9078 8.34866C17.89 8.11521 17.8684 7.88176 17.8392 7.64958C17.5396 4.84434 17.1789 4.66192 17.1789 4.66192C17.1548 4.64023 17.1256 4.62365 17.0862 4.61599C16.8971 4.57645 16.7942 4.74356 16.7104 4.86985C16.332 5.43881 16.4996 6.04477 16.6215 6.64434C17.0494 8.74413 17.0558 10.8248 16.3219 12.8672C16.2546 13.0534 16.1746 13.2346 16.0895 13.4132C15.9993 13.6032 15.9409 13.8405 15.6336 13.7385C15.3454 13.6428 15.4267 13.4234 15.4635 13.2231C15.56 12.7141 15.6375 12.2038 15.6857 11.6922V11.6948C15.6921 11.6438 15.6946 11.5953 15.6984 11.5468C15.706 11.4588 15.7111 11.3695 15.7162 11.2815C15.72 11.2075 15.7238 11.1348 15.7276 11.0633C15.7289 11.0263 15.7314 10.9906 15.7314 10.9536C15.7898 9.33222 15.5181 8.59487 15.4153 8.37673C15.4038 8.34994 15.3911 8.3257 15.3772 8.30401C15.2705 8.14328 15.094 8.16241 14.9416 8.31422C14.661 8.59232 14.5061 8.92145 14.5772 9.33605C14.7855 10.5429 14.6636 11.7382 14.4401 12.9271C14.4096 13.0866 14.3385 13.3774 13.9995 13.3022C13.7684 13.2511 13.7151 13.1516 13.7024 12.9501C13.7049 12.7983 13.7024 12.6465 13.6973 12.4947C13.6973 12.4908 13.6973 12.487 13.6973 12.4832C13.6973 12.4615 13.6947 12.4398 13.6947 12.4194C13.6947 12.4079 13.6935 12.3977 13.6922 12.3875C13.682 12.1808 13.6655 11.9729 13.6401 11.765C13.6376 11.7446 13.6338 11.7254 13.6312 11.705C13.5017 10.5339 13.3329 10.4204 13.3329 10.4204C13.2249 10.2788 13.0561 10.303 12.91 10.4484C12.6294 10.7266 12.4872 11.0544 12.5456 11.4703C12.5888 11.7739 12.5774 11.6808 12.6078 11.9461C12.632 12.0826 12.6573 12.3314 12.6599 12.4105C12.6535 12.4806 12.6358 12.5419 12.5926 12.5878C12.4491 12.7421 12.218 12.584 12.0428 12.5112C8.64493 11.0991 5.73719 9.11663 3.19896 6.60862C2.20347 5.58424 0.503273 3.51635 0.503273 3.51635C0.439785 3.44236 0.361061 3.40026 0.240434 3.45256C0.0182272 3.54824 0.024576 3.83399 0.00425995 4.07382C-0.0363721 4.55476 0.220118 4.90302 0.498194 5.2296C4.33158 9.72258 9.00935 12.9514 14.6559 14.5664L15.6717 14.8368C15.6832 14.8394 15.6959 14.8432 15.7073 14.8458C15.7098 14.8458 15.7111 14.8458 15.7124 14.847L16.5872 15.0805L16.6114 15.0869C16.5822 15.0958 16.5504 15.1022 16.5161 15.1085C15.5537 15.2999 13.649 14.9478 12.119 14.5893C11.3622 14.4299 10.6181 14.236 9.89056 14.0051C9.85754 13.9949 9.8385 13.9898 9.8385 13.9898C7.01203 13.0853 4.423 11.6195 2.15776 9.38452C1.94317 9.17276 1.74509 8.94441 1.54955 8.71351C1.37051 8.4992 1.00102 8.05143 0.872771 7.89707C0.858804 7.87666 0.843567 7.8588 0.82833 7.84221C0.790237 7.80267 0.743256 7.77715 0.675959 7.79246C0.51851 7.82946 0.472799 7.99274 0.443594 8.13052C0.328047 8.68417 0.503273 9.1498 0.874041 9.56567C3.19388 12.1783 6.10542 13.8469 9.37504 14.9414C11.2314 15.5627 13.1411 15.9403 15.0889 16.1814C13.9271 16.559 12.7323 16.6738 11.5273 16.6432C9.19473 16.5845 7.00695 16.0219 4.95122 15.018C4.19317 14.6263 3.48719 14.19 3.30181 14.0727C3.19515 14 3.08468 13.9553 2.97548 14.0395C2.77105 14.199 2.91199 14.4784 2.97802 14.6965C3.10373 15.1162 3.3945 15.4058 3.77162 15.6061C7.12123 17.3857 10.6575 18.0975 14.4223 17.466C14.8032 17.4022 15.1651 17.3321 15.5638 17.1969C14.934 17.7441 14.2052 18.1013 13.4395 18.3832C11.0816 19.2494 8.73889 19.215 6.40508 18.6282C5.65593 18.4266 4.78742 18.0988 4.78742 18.0988C4.66171 18.0439 4.53728 18.0248 4.44078 18.1638C4.27063 18.4088 4.41919 18.6639 4.56648 18.8948C4.91439 19.4395 5.58736 19.4931 6.11939 19.6781C6.30096 19.7368 5.80576 20.0684 5.64704 20.1909C4.87503 20.7841 4.11953 21.3263 3.35133 21.9003L2.84851 22.2728C2.76216 22.3328 2.68598 22.4004 2.72534 22.5254C2.77105 22.667 2.91707 22.6925 3.05929 22.7219C3.60909 22.8367 4.0789 22.653 4.51315 22.3264C5.44388 21.626 6.39239 20.9461 7.3028 20.219C7.64944 19.9421 7.96434 19.9651 8.43796 20.0876C7.25328 20.9844 6.14479 21.8251 5.03502 22.6645C3.90875 23.5153 2.78248 24.3662 1.65621 25.2158L0.912133 25.7695C0.900706 25.7771 0.890548 25.7848 0.88039 25.7937L0.868962 25.8014C0.805474 25.8524 0.758493 25.9098 0.772461 25.9838C0.802935 26.1522 0.999746 26.1943 1.16101 26.2224C1.82636 26.3372 2.23903 26.0859 2.6936 25.7427C4.97026 24.0256 7.25455 22.32 9.51852 20.5864C10.0264 20.1973 10.5483 19.9779 11.2809 20.0608C10.6575 20.529 10.0582 20.9793 9.46773 21.4232L7.86276 22.616C7.85133 22.6236 7.83991 22.6326 7.82975 22.6415C7.74467 22.7091 7.685 22.7882 7.71801 22.9056C7.77896 23.1186 8.03418 23.1441 8.25131 23.1773C8.65001 23.2372 8.98776 23.0956 9.30139 22.8609C9.4817 22.7257 9.66327 22.593 9.84484 22.4616L12.2955 20.506C12.2955 20.506 12.8745 20.0901 13.5449 19.7087C13.6046 19.6717 13.6643 19.6334 13.7252 19.5964C13.7506 19.5849 13.8141 19.5556 13.9106 19.5097C13.983 19.4727 14.0553 19.4357 14.1265 19.4012C14.2318 19.3477 14.3537 19.2826 14.4909 19.2073C14.8858 19.0428 16.0171 18.5121 16.9517 17.5119C17.3961 17.1675 18.0221 16.7172 18.5096 16.5003H18.5122C18.549 16.4837 18.5858 16.4684 18.6214 16.4557C18.6214 16.4557 18.6239 16.4557 18.6252 16.4544C18.6493 16.4455 18.6722 16.4378 18.695 16.4302L18.7572 16.4059C18.9337 16.3562 19.2207 16.337 19.2588 16.7274C19.2651 16.8231 19.2639 16.9213 19.2524 17.0246C19.2448 17.1024 19.2296 17.1854 19.2182 17.2517C19.2067 17.3155 19.2334 17.3793 19.2842 17.4175C19.2918 17.4239 19.3007 17.429 19.3096 17.4329C19.3769 17.466 19.4581 17.4507 19.5089 17.3946C19.528 17.3742 19.547 17.3525 19.5661 17.3321C19.8061 17.0782 20.0499 16.9022 20.3089 16.795C20.6873 16.6381 21.0707 16.6368 21.4783 16.7937C21.6726 16.8677 21.8554 16.9698 22.037 17.1037C22.1145 17.1611 22.1919 17.2249 22.2694 17.2951C22.3151 17.3372 22.3608 17.3831 22.4014 17.4239L22.4078 17.4303L22.4408 17.4635C22.4408 17.4635 22.4535 17.475 22.4598 17.4801C22.4979 17.5081 22.5475 17.5196 22.5957 17.5094C22.6516 17.4966 22.6973 17.4571 22.7176 17.4035C22.7214 17.3933 22.7252 17.3831 22.729 17.3729C22.8446 17.0285 22.8687 16.7121 22.8014 16.4034H22.7951Z" fill="url(#paint0_linear_9492_66752)"></path><path d="M18.5684 14.6067C18.5813 14.6119 18.593 14.6171 18.606 14.621C18.593 14.6158 18.58 14.6119 18.5684 14.6067Z" fill="#FEDBB5"></path><path d="M17.2035 13.5337C17.2035 13.5337 17.2007 13.5392 17.2007 13.542C17.2007 13.5392 17.2035 13.5365 17.2035 13.5337Z" fill="#FEDBB5"></path><path d="M19.0745 13.5312C19.0745 13.5312 19.0701 13.5386 19.0671 13.5415C19.0701 13.5386 19.0716 13.5342 19.0745 13.5312Z" fill="#FEDBB5"></path><path d="M16.0934 13.4114C16.0718 13.456 16.0528 13.5032 16.0325 13.5479C16.0541 13.5032 16.0731 13.456 16.0934 13.4114Z" fill="#FEDBB5"></path><path d="M13.762 13.1638C13.762 13.1638 13.762 13.1656 13.7638 13.1674C13.7638 13.1674 13.7638 13.1656 13.762 13.1638Z" fill="#FEDBB5"></path><path d="M13.7686 13.1729C13.7876 13.1984 13.8117 13.2214 13.8422 13.2405C13.8117 13.2214 13.7876 13.1997 13.7686 13.1729ZM13.7686 13.1704C13.7686 13.1704 13.7686 13.1704 13.7686 13.1716C13.7686 13.1716 13.7686 13.1716 13.7686 13.1704ZM13.7673 13.1691C13.7673 13.1691 13.7673 13.1691 13.7673 13.1704C13.7673 13.1704 13.7673 13.1704 13.7673 13.1691ZM13.7114 12.9497C13.7114 12.9497 13.7114 12.9509 13.7114 12.9522C13.7114 12.9522 13.7114 12.9509 13.7114 12.9497ZM12.2385 12.5963C12.2385 12.5963 12.2411 12.5963 12.2411 12.5976C12.3122 12.6282 12.3833 12.6524 12.4493 12.6524C12.4772 12.6524 12.5039 12.6486 12.528 12.6384C12.5026 12.6486 12.476 12.6524 12.4493 12.6524C12.382 12.6524 12.3096 12.6269 12.2385 12.5963ZM13.7013 12.373C13.7013 12.373 13.7013 12.373 13.7013 12.3743C13.7013 12.3743 13.7013 12.3743 13.7013 12.373Z" fill="#E5B4A6"></path><path d="M18.6063 14.6206C18.6063 14.6206 18.6177 14.6257 18.624 14.627C18.624 14.627 18.6126 14.6219 18.6063 14.6206ZM17.047 13.9611C17.047 14.0095 17.0635 14.0529 17.1105 14.0861C17.127 14.0976 17.1448 14.1027 17.1638 14.1027C17.1918 14.1027 17.221 14.0912 17.2514 14.072C17.2222 14.0912 17.193 14.1027 17.1638 14.1027C17.1448 14.1027 17.127 14.0976 17.1105 14.0861C17.0635 14.0542 17.047 14.0095 17.047 13.9611ZM17.146 13.6728C17.146 13.6728 17.141 13.6855 17.1384 13.6919C17.141 13.6855 17.1435 13.6791 17.146 13.6728ZM17.1943 13.5579C17.1791 13.5962 17.1626 13.6345 17.146 13.6728C17.1626 13.6345 17.1778 13.5962 17.1943 13.5579ZM17.2006 13.5414C17.2006 13.5414 17.1956 13.5516 17.1943 13.5579C17.1968 13.5528 17.1994 13.5477 17.2006 13.5414ZM19.0672 13.5414C19.0672 13.5414 19.0672 13.5426 19.0659 13.5439C19.0659 13.5439 19.0659 13.5426 19.0672 13.5414ZM19.0748 13.5299C19.0748 13.5299 19.0748 13.5312 19.0735 13.5324C19.0735 13.5324 19.0735 13.5312 19.0748 13.5299ZM17.207 13.5299C17.207 13.5299 17.2057 13.535 17.2045 13.5363C17.2045 13.5337 17.2057 13.5312 17.207 13.5299ZM15.4281 13.4788C15.4281 13.5886 15.4712 13.6842 15.6376 13.7391C15.6884 13.7557 15.7328 13.7633 15.7722 13.7633C15.9118 13.7633 15.9791 13.6638 16.0325 13.5503C15.9779 13.6651 15.9106 13.7633 15.7722 13.7633C15.7341 13.7633 15.6896 13.7557 15.6376 13.7391C15.4725 13.6842 15.4281 13.5886 15.4281 13.4788ZM14.3412 13.202C14.2916 13.2671 14.218 13.3156 14.1075 13.3156C14.0961 13.3156 14.0847 13.3156 14.0732 13.3143C14.0847 13.3143 14.0961 13.3156 14.1075 13.3156C14.218 13.3156 14.2916 13.2684 14.3412 13.202ZM16.487 12.3818C16.487 12.3818 16.487 12.3818 16.4858 12.3818C16.4363 12.5438 16.3842 12.7071 16.3271 12.8691C16.3855 12.7071 16.4388 12.545 16.4883 12.3818M14.5557 12.2912C14.5291 12.4698 14.4986 12.6471 14.4656 12.8257C14.4986 12.6484 14.5291 12.4698 14.5557 12.2912ZM18.8894 11.4377C18.6469 12.2389 18.2685 12.9941 17.6679 13.6702C17.5968 13.7506 17.5194 13.8258 17.4419 13.9024C17.5194 13.8271 17.5955 13.7506 17.6679 13.6702C18.2685 12.9941 18.6469 12.2389 18.8907 11.4377" fill="#E5B4A6"></path><path opacity="0.4" d="M0.340925 3.42896C0.310451 3.42896 0.277437 3.43661 0.240614 3.45192C0.0831649 3.5208 0.0399933 3.68537 0.0222168 3.86014C0.867872 4.97382 4.20732 9.08026 9.46029 11.897C9.46029 11.897 14.6041 14.6244 19.777 14.9191C19.3771 14.8642 19.0177 14.7737 18.6838 14.6499C18.6635 14.6423 18.6444 14.6359 18.6241 14.6282C16.7449 14.22 15.1424 13.7097 14.0085 13.3015C14.0301 13.3066 14.0517 13.3092 14.0708 13.3117C14.0504 13.3105 14.0276 13.3066 14.0047 13.3015C13.9362 13.2862 13.8828 13.2671 13.8422 13.2416C12.9458 12.9124 12.3744 12.6599 12.2372 12.5973C12.1712 12.5693 12.1065 12.5348 12.048 12.5106C8.65019 11.0984 5.74245 9.11598 3.20422 6.60798C2.20365 5.5836 0.503453 3.5157 0.503453 3.5157C0.460282 3.46467 0.408222 3.42896 0.340925 3.42896Z" fill="url(#paint1_linear_9492_66752)"></path><path opacity="0.4" d="M0.715577 7.78809C0.704149 7.78809 0.691452 7.78936 0.677484 7.79319C0.520035 7.83018 0.474324 7.99347 0.44512 8.13125C0.440041 8.15549 0.434962 8.181 0.431152 8.20524C3.057 11.7797 6.58184 13.2404 6.58184 13.2404C10.1003 14.9052 12.9877 15.2419 14.7463 15.2419C15.4739 15.2419 16.0085 15.1845 16.3145 15.1399C16.1748 15.1552 16.0212 15.1629 15.8561 15.1629C14.8251 15.1629 13.3509 14.8784 12.1205 14.5901C11.3637 14.4306 10.6196 14.2367 9.89208 14.0058C9.85907 13.9956 9.84002 13.9905 9.84002 13.9905C7.01355 13.086 4.42453 11.6203 2.15929 9.38525C1.9447 9.17349 1.74662 8.94514 1.55107 8.71424C1.37204 8.49992 1.00254 8.05215 0.874296 7.8978C0.860329 7.87738 0.845092 7.85952 0.829855 7.84294C0.799381 7.81105 0.762558 7.78809 0.715577 7.78809Z" fill="url(#paint2_linear_9492_66752)"></path><path opacity="0.4" d="M3.10274 13.9968C3.06084 13.9968 3.01894 14.0096 2.97704 14.0428C2.79927 14.1818 2.88307 14.4114 2.95037 14.6117C4.2671 15.4141 7.28658 16.9768 10.8622 16.9768C12.2132 16.9768 13.6417 16.7549 15.0892 16.1846C14.0442 16.5252 12.9713 16.6515 11.8894 16.6515C11.7688 16.6515 11.6482 16.6503 11.5276 16.6464C9.19501 16.5878 7.00723 16.0252 4.9515 15.0212C4.19346 14.6296 3.48748 14.1933 3.30209 14.0759C3.23606 14.0313 3.17004 13.9968 3.10274 13.9968Z" fill="url(#paint3_linear_9492_66752)"></path><path opacity="0.4" d="M15.3315 17.3901C14.7576 17.8315 14.1138 18.1377 13.4396 18.3852C12.1749 18.8495 10.914 19.0549 9.65696 19.0549C8.57005 19.0549 7.48695 18.9018 6.40512 18.6301C5.65597 18.4285 4.78746 18.1007 4.78746 18.1007C4.73286 18.0765 4.67826 18.0599 4.6262 18.0599C4.5589 18.0599 4.49541 18.0879 4.44208 18.167C4.36336 18.2806 4.3532 18.3967 4.3786 18.5115C5.20901 18.8993 6.99048 19.5882 9.16302 19.5882C11.0461 19.5882 13.2237 19.0702 15.3315 17.3901Z" fill="url(#paint4_linear_9492_66752)"></path><path opacity="0.4" d="M9.72943 20.0959C7.68894 20.0959 6.14619 19.6813 5.95065 19.6265C6.00778 19.643 6.06365 19.6609 6.11952 19.68C6.3011 19.7387 5.80589 20.0704 5.64718 20.1929C5.07706 20.6317 4.51456 21.0425 3.95079 21.4584H5.68273C6.22872 21.0527 6.77218 20.6457 7.30293 20.2209C7.49974 20.0627 7.68767 20.0028 7.89972 20.0028C8.05971 20.0028 8.23493 20.0372 8.43809 20.0908C7.25341 20.9876 6.14492 21.8283 5.03515 22.6677C4.38631 23.1576 3.73747 23.6474 3.08862 24.1373H4.83072C6.3976 22.9598 7.9632 21.7811 9.51865 20.5896C9.87799 20.3153 10.2437 20.1253 10.6856 20.0666C10.358 20.0883 10.038 20.0972 9.7307 20.0972L9.72943 20.0959Z" fill="url(#paint5_linear_9492_66752)"></path><path opacity="0.4" d="M9.36475 21.5005H11.0484L12.2915 20.508C12.2915 20.508 12.8705 20.0921 13.541 19.7107C13.6006 19.6737 13.6603 19.6355 13.7213 19.5985C13.7467 19.587 13.8102 19.5576 13.9067 19.5117C13.979 19.4747 14.0514 19.4377 14.1225 19.4033C14.2317 19.3471 14.36 19.2795 14.5022 19.2004C13.3022 19.7056 12.0731 19.9518 10.9354 20.0475C10.9507 20.0475 10.9672 20.0475 10.9824 20.0475C11.0776 20.0475 11.1767 20.0526 11.2795 20.0641C10.6561 20.5323 10.0568 20.9826 9.46633 21.4265L9.36475 21.5018V21.5005Z" fill="url(#paint6_linear_9492_66752)"></path><path opacity="0.4" d="M13.7073 12.9483C13.7099 12.7965 13.7073 12.6447 13.7023 12.4929V12.4814C13.7023 12.4598 13.6997 12.4381 13.6997 12.4177L13.6972 12.3858C13.6908 12.2582 13.6807 12.1306 13.6692 12.0018C13.268 11.8321 12.8896 11.6152 12.5404 11.3601C12.543 11.3958 12.5442 11.4315 12.5493 11.4698C12.5925 11.7734 12.5811 11.6803 12.6115 11.9456C12.6357 12.0821 12.6611 12.3309 12.6636 12.41C12.6573 12.4802 12.6395 12.5414 12.5963 12.5873C12.5519 12.6345 12.4998 12.6524 12.4439 12.6524C12.3766 12.6524 12.3043 12.6269 12.2332 12.5963C12.3665 12.6562 12.9391 12.9101 13.8419 13.2418C13.7454 13.1818 13.715 13.0912 13.7061 12.9496L13.7073 12.9483Z" fill="url(#paint7_linear_9492_66752)"></path><path opacity="0.4" d="M20.2543 10.0791C19.8785 10.6047 19.4163 11.0652 18.8868 11.4352C18.6443 12.2363 18.2659 12.9915 17.6653 13.6676C17.5942 13.748 17.5167 13.8233 17.4393 13.8998C17.3644 13.9725 17.2564 14.1052 17.1625 14.1052C17.1434 14.1052 17.1256 14.1001 17.1091 14.0886C16.972 13.9929 17.0939 13.7965 17.1371 13.6944C17.3618 13.165 17.5345 12.6279 17.6627 12.0832C17.2869 12.2248 16.892 12.3243 16.4844 12.3804C16.4349 12.5425 16.3828 12.7057 16.3257 12.8678C16.2584 13.054 16.1784 13.2352 16.0933 13.4138C16.0184 13.5719 15.9651 13.7633 15.7708 13.7633C15.7327 13.7633 15.6883 13.7556 15.6362 13.7391C15.348 13.6434 15.4293 13.424 15.4661 13.2237C15.5156 12.9583 15.5613 12.693 15.5994 12.4264C15.2413 12.4149 14.8909 12.369 14.5519 12.2899C14.5201 12.5029 14.4833 12.7147 14.4427 12.9264C14.416 13.068 14.3563 13.3143 14.1049 13.3143C14.0744 13.3143 14.0414 13.3104 14.0059 13.3028C15.1397 13.7123 16.7409 14.2225 18.6214 14.6308C18.6024 14.6231 18.5846 14.6167 18.5668 14.6091C18.2671 14.4815 18.8081 13.9406 19.0557 13.5566C19.7528 12.4787 20.0943 11.3012 20.2518 10.0804L20.2543 10.0791Z" fill="url(#paint8_linear_9492_66752)"></path><path opacity="0.5" d="M19.9737 15.9218C19.7388 15.9218 19.5014 15.9448 19.269 15.9869C19.2246 15.9945 19.1814 15.9984 19.1408 15.9984C19.0747 15.9984 19.0125 15.9882 18.9541 15.9703C18.963 15.9818 18.9731 15.9933 18.982 16.006C19.0836 16.1489 19.1369 16.3045 19.1573 16.4665C19.1827 16.4946 19.2042 16.5291 19.222 16.5737C19.222 16.5737 19.222 16.5737 19.222 16.5763C19.222 16.5763 19.222 16.5763 19.222 16.5775C19.222 16.5775 19.222 16.5775 19.222 16.5788C19.222 16.5788 19.222 16.5788 19.222 16.5801C19.222 16.5801 19.222 16.5801 19.222 16.5814C19.222 16.5814 19.222 16.5814 19.222 16.5826C19.222 16.5826 19.222 16.5826 19.222 16.5839C19.222 16.5839 19.222 16.5839 19.222 16.5852V16.5877C19.222 16.5877 19.222 16.5877 19.222 16.589C19.222 16.589 19.222 16.589 19.222 16.5903C19.222 16.5903 19.222 16.5903 19.222 16.5916C19.222 16.5916 19.222 16.5916 19.222 16.5928C19.222 16.5928 19.222 16.5928 19.222 16.5941C19.222 16.5941 19.222 16.5954 19.222 16.5967C19.222 16.5967 19.222 16.5967 19.222 16.5992C19.222 16.5992 19.222 16.5992 19.222 16.6005C19.222 16.6005 19.222 16.6005 19.222 16.6018C19.222 16.6018 19.222 16.6018 19.222 16.603C19.222 16.603 19.222 16.603 19.222 16.6043C19.222 16.6043 19.222 16.6043 19.222 16.6056C19.222 16.6056 19.222 16.6056 19.222 16.6069C19.222 16.6069 19.222 16.6069 19.222 16.6081C19.222 16.6081 19.222 16.6081 19.222 16.6094C19.222 16.6094 19.222 16.6094 19.222 16.6107C19.222 16.6107 19.222 16.6107 19.222 16.612C19.222 16.612 19.222 16.612 19.222 16.6132C19.222 16.6132 19.222 16.6132 19.222 16.6158C19.222 16.6158 19.222 16.6171 19.222 16.6183C19.222 16.6183 19.222 16.6196 19.222 16.6209V16.6235C19.222 16.6235 19.222 16.6247 19.222 16.626C19.222 16.626 19.222 16.6273 19.222 16.6286C19.222 16.6286 19.222 16.6298 19.222 16.6311C19.222 16.6311 19.222 16.6324 19.222 16.6337C19.222 16.6337 19.222 16.6349 19.222 16.6362C19.222 16.6362 19.222 16.6375 19.222 16.6388C19.222 16.6388 19.222 16.64 19.222 16.6413C19.222 16.6439 19.222 16.6464 19.222 16.649C19.222 16.649 19.222 16.6502 19.222 16.6515C19.222 16.6515 19.222 16.6566 19.222 16.6592C19.222 16.6592 19.222 16.6604 19.222 16.6617V16.6643C19.222 16.6643 19.222 16.6681 19.222 16.6694C19.222 16.6694 19.222 16.6707 19.222 16.6719V16.6745V16.677C19.2246 16.714 19.2258 16.7523 19.2258 16.7906C19.2258 16.8505 19.222 16.9118 19.2157 16.9743C19.2081 17.0521 19.1928 17.135 19.1814 17.2013C19.1801 17.2115 19.1788 17.2218 19.1788 17.2307C19.1788 17.2843 19.2042 17.334 19.2474 17.3659L19.2728 17.3812C19.2969 17.3927 19.3223 17.3991 19.3477 17.3991C19.3947 17.3991 19.4391 17.3799 19.4722 17.3442C19.4912 17.3238 19.5103 17.3021 19.5293 17.2817C19.7693 17.0278 20.0131 16.8518 20.2721 16.7446C20.4626 16.6655 20.653 16.626 20.8473 16.626C21.0416 16.626 21.2384 16.6655 21.4415 16.7434C21.6358 16.8174 21.8187 16.9194 22.0002 17.0534C22.0777 17.1108 22.1551 17.1745 22.2326 17.2447C22.2783 17.2868 22.324 17.3327 22.3647 17.3736L22.371 17.3799L22.404 17.4131L22.4231 17.4297C22.451 17.4501 22.4853 17.4616 22.5196 17.4629C22.3583 17.1171 22.1551 16.7957 21.8682 16.5456C21.3247 16.0724 20.6391 15.8721 19.942 15.8721" fill="url(#paint9_linear_9492_66752)"></path><path opacity="0.4" d="M19.9077 13.6218L19.8773 13.6244C19.8049 13.6384 19.749 13.6971 19.7401 13.7711C19.7338 13.8285 19.7338 13.8897 19.7414 13.9522C19.7439 13.9726 19.7389 13.9918 19.73 14.0071C20.0208 14.4408 20.6506 15.2088 21.6067 15.4996C21.6067 15.4996 23.0847 16.2765 22.7114 17.403L22.7228 17.3724C22.8383 17.0279 22.8625 16.7115 22.7952 16.4028C22.7279 16.0979 22.5742 15.8173 22.3368 15.5685C22.2454 15.4729 22.1438 15.3823 22.0333 15.3006C21.98 15.2611 21.9228 15.2241 21.8644 15.1871C21.7921 15.1412 21.7171 15.0978 21.6346 15.0557C21.3324 14.9001 21.0746 14.7432 20.8486 14.5748C20.7572 14.5072 20.6683 14.4357 20.5845 14.363C20.3826 14.1857 20.2468 14.0339 20.1452 13.8731C20.1122 13.8221 20.083 13.766 20.055 13.7124C20.0436 13.6894 20.0258 13.6703 20.0055 13.655C19.9776 13.6333 19.942 13.6218 19.9052 13.6218" fill="url(#paint10_linear_9492_66752)"></path><path opacity="0.5" d="M18.0324 16.7601L18.332 16.5853L19.5916 14.8899C19.5916 14.8899 18.9021 14.7585 18.5695 14.6067C18.5695 14.6067 18.2241 16.1898 16.948 17.5127L17.4178 17.1632C17.6057 17.0305 17.7759 16.917 18.0324 16.7601Z" fill="url(#paint11_linear_9492_66752)"></path><path d="M31.68 21C31.5893 21 31.51 20.966 31.442 20.898C31.374 20.83 31.34 20.7507 31.34 20.66C31.34 20.6033 31.3457 20.541 31.357 20.473L35.573 9.474C35.6183 9.36067 35.6807 9.27 35.76 9.202C35.8393 9.134 35.9583 9.1 36.117 9.1H37.273C37.4203 9.1 37.5337 9.134 37.613 9.202C37.7037 9.27 37.7717 9.36067 37.817 9.474L42.016 20.473C42.0387 20.541 42.05 20.6033 42.05 20.66C42.05 20.7507 42.016 20.83 41.948 20.898C41.88 20.966 41.8007 21 41.71 21H40.843C40.707 21 40.605 20.966 40.537 20.898C40.4803 20.83 40.4407 20.7677 40.418 20.711L39.483 18.297H33.907L32.972 20.711C32.9607 20.7677 32.921 20.83 32.853 20.898C32.785 20.966 32.683 21 32.547 21H31.68ZM34.4 16.835H38.99L36.695 10.8L34.4 16.835ZM44.0377 21C43.9243 21 43.828 20.966 43.7487 20.898C43.6807 20.8187 43.6467 20.7223 43.6467 20.609V12.568C43.6467 12.4547 43.6807 12.3583 43.7487 12.279C43.828 12.1997 43.9243 12.16 44.0377 12.16H44.8197C44.933 12.16 45.0293 12.1997 45.1087 12.279C45.188 12.3583 45.2277 12.4547 45.2277 12.568V13.316C45.4543 12.9307 45.766 12.6417 46.1627 12.449C46.5593 12.2563 47.0353 12.16 47.5907 12.16H48.2707C48.384 12.16 48.4747 12.1997 48.5427 12.279C48.6107 12.347 48.6447 12.4377 48.6447 12.551V13.248C48.6447 13.3613 48.6107 13.452 48.5427 13.52C48.4747 13.588 48.384 13.622 48.2707 13.622H47.2507C46.6387 13.622 46.157 13.8033 45.8057 14.166C45.4543 14.5173 45.2787 14.999 45.2787 15.611V20.609C45.2787 20.7223 45.239 20.8187 45.1597 20.898C45.0803 20.966 44.984 21 44.8707 21H44.0377ZM50.4957 21C50.3823 21 50.286 20.966 50.2067 20.898C50.1387 20.8187 50.1047 20.7223 50.1047 20.609V12.551C50.1047 12.4377 50.1387 12.347 50.2067 12.279C50.286 12.1997 50.3823 12.16 50.4957 12.16H51.3117C51.425 12.16 51.5157 12.1997 51.5837 12.279C51.6517 12.347 51.6857 12.4377 51.6857 12.551V20.609C51.6857 20.7223 51.6517 20.8187 51.5837 20.898C51.5157 20.966 51.425 21 51.3117 21H50.4957ZM50.3597 10.511C50.2463 10.511 50.15 10.477 50.0707 10.409C50.0027 10.3297 49.9687 10.2333 49.9687 10.12V9.202C49.9687 9.08867 50.0027 8.998 50.0707 8.93C50.15 8.85067 50.2463 8.811 50.3597 8.811H51.4307C51.544 8.811 51.6347 8.85067 51.7027 8.93C51.782 8.998 51.8217 9.08867 51.8217 9.202V10.12C51.8217 10.2333 51.782 10.3297 51.7027 10.409C51.6347 10.477 51.544 10.511 51.4307 10.511H50.3597ZM54.0519 21C53.9385 21 53.8422 20.966 53.7629 20.898C53.6949 20.8187 53.6609 20.7223 53.6609 20.609V20.014C53.6609 19.912 53.6835 19.8157 53.7289 19.725C53.7855 19.6343 53.8422 19.5493 53.8989 19.47L58.5909 13.503H54.2049C54.0915 13.503 53.9952 13.469 53.9159 13.401C53.8479 13.333 53.8139 13.2367 53.8139 13.112V12.551C53.8139 12.4377 53.8479 12.347 53.9159 12.279C53.9952 12.1997 54.0915 12.16 54.2049 12.16H60.2569C60.3702 12.16 60.4609 12.1997 60.5289 12.279C60.6082 12.347 60.6479 12.4377 60.6479 12.551V13.18C60.6479 13.282 60.6195 13.3727 60.5629 13.452C60.5175 13.5313 60.4665 13.6163 60.4099 13.707L55.7689 19.657H60.5969C60.7102 19.657 60.8009 19.691 60.8689 19.759C60.9482 19.827 60.9879 19.9233 60.9879 20.048V20.609C60.9879 20.7223 60.9482 20.8187 60.8689 20.898C60.8009 20.966 60.7102 21 60.5969 21H54.0519ZM66.2907 21.17C65.1233 21.17 64.194 20.813 63.5027 20.099C62.8113 19.3737 62.4317 18.3877 62.3637 17.141C62.3523 16.9937 62.3467 16.8067 62.3467 16.58C62.3467 16.342 62.3523 16.1493 62.3637 16.002C62.409 15.1973 62.596 14.4947 62.9247 13.894C63.2533 13.282 63.701 12.8117 64.2677 12.483C64.8457 12.1543 65.52 11.99 66.2907 11.99C67.152 11.99 67.8717 12.1713 68.4497 12.534C69.039 12.8967 69.4867 13.4123 69.7927 14.081C70.0987 14.7497 70.2517 15.5317 70.2517 16.427V16.716C70.2517 16.8407 70.212 16.937 70.1327 17.005C70.0647 17.073 69.974 17.107 69.8607 17.107H63.9787C63.9787 17.1183 63.9787 17.141 63.9787 17.175C63.9787 17.209 63.9787 17.2373 63.9787 17.26C64.0013 17.7247 64.1033 18.161 64.2847 18.569C64.466 18.9657 64.7267 19.2887 65.0667 19.538C65.4067 19.7873 65.8147 19.912 66.2907 19.912C66.6987 19.912 67.0387 19.8497 67.3107 19.725C67.5827 19.6003 67.8037 19.4643 67.9737 19.317C68.1437 19.1583 68.257 19.0393 68.3137 18.96C68.4157 18.8127 68.495 18.7277 68.5517 18.705C68.6083 18.671 68.699 18.654 68.8237 18.654H69.6397C69.753 18.654 69.8437 18.688 69.9117 18.756C69.991 18.8127 70.025 18.8977 70.0137 19.011C70.0023 19.181 69.9117 19.3907 69.7417 19.64C69.5717 19.878 69.328 20.116 69.0107 20.354C68.6933 20.592 68.308 20.7903 67.8547 20.949C67.4013 21.0963 66.88 21.17 66.2907 21.17ZM63.9787 15.934H68.6367V15.883C68.6367 15.373 68.5403 14.9197 68.3477 14.523C68.1663 14.1263 67.9 13.8147 67.5487 13.588C67.1973 13.35 66.778 13.231 66.2907 13.231C65.8033 13.231 65.384 13.35 65.0327 13.588C64.6927 13.8147 64.432 14.1263 64.2507 14.523C64.0693 14.9197 63.9787 15.373 63.9787 15.883V15.934ZM77.0634 21C76.9387 21 76.8424 20.966 76.7744 20.898C76.7064 20.8187 76.6724 20.7223 76.6724 20.609V9.508C76.6724 9.38333 76.7064 9.287 76.7744 9.219C76.8424 9.13967 76.9387 9.1 77.0634 9.1H81.3814C82.22 9.1 82.9454 9.236 83.5574 9.508C84.1807 9.78 84.6624 10.188 85.0024 10.732C85.3424 11.2647 85.5124 11.9333 85.5124 12.738C85.5124 13.5427 85.3424 14.2113 85.0024 14.744C84.6624 15.2767 84.1807 15.679 83.5574 15.951C82.9454 16.223 82.22 16.359 81.3814 16.359H78.3724V20.609C78.3724 20.7223 78.3327 20.8187 78.2534 20.898C78.1854 20.966 78.089 21 77.9644 21H77.0634ZM78.3554 14.931H81.2964C82.135 14.931 82.764 14.744 83.1834 14.37C83.6027 13.996 83.8124 13.452 83.8124 12.738C83.8124 12.0353 83.6084 11.4913 83.2004 11.106C82.7924 10.7207 82.1577 10.528 81.2964 10.528H78.3554V14.931ZM87.7666 21C87.6533 21 87.5569 20.966 87.4776 20.898C87.4096 20.8187 87.3756 20.7223 87.3756 20.609V9.321C87.3756 9.20767 87.4096 9.117 87.4776 9.049C87.5569 8.96967 87.6533 8.93 87.7666 8.93H88.6166C88.7413 8.93 88.8376 8.96967 88.9056 9.049C88.9736 9.117 89.0076 9.20767 89.0076 9.321V13.282C89.3136 12.8967 89.6876 12.585 90.1296 12.347C90.5716 12.109 91.1326 11.99 91.8126 11.99C92.5493 11.99 93.1726 12.1543 93.6826 12.483C94.2039 12.8003 94.5949 13.248 94.8556 13.826C95.1276 14.3927 95.2636 15.0557 95.2636 15.815V20.609C95.2636 20.7223 95.2296 20.8187 95.1616 20.898C95.0936 20.966 94.9973 21 94.8726 21H94.0226C93.9093 21 93.8129 20.966 93.7336 20.898C93.6656 20.8187 93.6316 20.7223 93.6316 20.609V15.9C93.6316 15.1067 93.4389 14.489 93.0536 14.047C92.6683 13.5937 92.1016 13.367 91.3536 13.367C90.6509 13.367 90.0843 13.5937 89.6536 14.047C89.2229 14.489 89.0076 15.1067 89.0076 15.9V20.609C89.0076 20.7223 88.9736 20.8187 88.9056 20.898C88.8376 20.966 88.7413 21 88.6166 21H87.7666ZM101.339 21.17C100.478 21.17 99.758 21.0057 99.18 20.677C98.602 20.3483 98.16 19.895 97.854 19.317C97.548 18.7277 97.378 18.059 97.344 17.311C97.3326 17.1183 97.327 16.8747 97.327 16.58C97.327 16.274 97.3326 16.0303 97.344 15.849C97.378 15.0897 97.548 14.421 97.854 13.843C98.1713 13.265 98.619 12.8117 99.197 12.483C99.775 12.1543 100.489 11.99 101.339 11.99C102.189 11.99 102.903 12.1543 103.481 12.483C104.059 12.8117 104.501 13.265 104.807 13.843C105.124 14.421 105.3 15.0897 105.334 15.849C105.345 16.0303 105.351 16.274 105.351 16.58C105.351 16.8747 105.345 17.1183 105.334 17.311C105.3 18.059 105.13 18.7277 104.824 19.317C104.518 19.895 104.076 20.3483 103.498 20.677C102.92 21.0057 102.2 21.17 101.339 21.17ZM101.339 19.861C102.042 19.861 102.603 19.64 103.022 19.198C103.441 18.7447 103.668 18.0873 103.702 17.226C103.713 17.056 103.719 16.8407 103.719 16.58C103.719 16.3193 103.713 16.104 103.702 15.934C103.668 15.0727 103.441 14.421 103.022 13.979C102.603 13.5257 102.042 13.299 101.339 13.299C100.636 13.299 100.07 13.5257 99.639 13.979C99.2196 14.421 98.9986 15.0727 98.976 15.934C98.9646 16.104 98.959 16.3193 98.959 16.58C98.959 16.8407 98.9646 17.056 98.976 17.226C98.9986 18.0873 99.2196 18.7447 99.639 19.198C100.07 19.64 100.636 19.861 101.339 19.861ZM110.999 21.17C109.831 21.17 108.902 20.813 108.211 20.099C107.519 19.3737 107.14 18.3877 107.072 17.141C107.06 16.9937 107.055 16.8067 107.055 16.58C107.055 16.342 107.06 16.1493 107.072 16.002C107.117 15.1973 107.304 14.4947 107.633 13.894C107.961 13.282 108.409 12.8117 108.976 12.483C109.554 12.1543 110.228 11.99 110.999 11.99C111.86 11.99 112.58 12.1713 113.158 12.534C113.747 12.8967 114.195 13.4123 114.501 14.081C114.807 14.7497 114.96 15.5317 114.96 16.427V16.716C114.96 16.8407 114.92 16.937 114.841 17.005C114.773 17.073 114.682 17.107 114.569 17.107H108.687C108.687 17.1183 108.687 17.141 108.687 17.175C108.687 17.209 108.687 17.2373 108.687 17.26C108.709 17.7247 108.811 18.161 108.993 18.569C109.174 18.9657 109.435 19.2887 109.775 19.538C110.115 19.7873 110.523 19.912 110.999 19.912C111.407 19.912 111.747 19.8497 112.019 19.725C112.291 19.6003 112.512 19.4643 112.682 19.317C112.852 19.1583 112.965 19.0393 113.022 18.96C113.124 18.8127 113.203 18.7277 113.26 18.705C113.316 18.671 113.407 18.654 113.532 18.654H114.348C114.461 18.654 114.552 18.688 114.62 18.756C114.699 18.8127 114.733 18.8977 114.722 19.011C114.71 19.181 114.62 19.3907 114.45 19.64C114.28 19.878 114.036 20.116 113.719 20.354C113.401 20.592 113.016 20.7903 112.563 20.949C112.109 21.0963 111.588 21.17 110.999 21.17ZM108.687 15.934H113.345V15.883C113.345 15.373 113.248 14.9197 113.056 14.523C112.874 14.1263 112.608 13.8147 112.257 13.588C111.905 13.35 111.486 13.231 110.999 13.231C110.511 13.231 110.092 13.35 109.741 13.588C109.401 13.8147 109.14 14.1263 108.959 14.523C108.777 14.9197 108.687 15.373 108.687 15.883V15.934ZM117.383 21C117.27 21 117.174 20.966 117.094 20.898C117.026 20.8187 116.992 20.7223 116.992 20.609V12.551C116.992 12.4377 117.026 12.347 117.094 12.279C117.174 12.1997 117.27 12.16 117.383 12.16H118.182C118.296 12.16 118.386 12.1997 118.454 12.279C118.534 12.347 118.573 12.4377 118.573 12.551V13.299C118.868 12.9137 119.236 12.602 119.678 12.364C120.132 12.1147 120.71 11.99 121.412 11.99C122.149 11.99 122.772 12.1543 123.282 12.483C123.804 12.8003 124.195 13.248 124.455 13.826C124.716 14.3927 124.846 15.0557 124.846 15.815V20.609C124.846 20.7223 124.812 20.8187 124.744 20.898C124.676 20.966 124.586 21 124.472 21H123.622C123.509 21 123.413 20.966 123.333 20.898C123.265 20.8187 123.231 20.7223 123.231 20.609V15.9C123.231 15.1067 123.039 14.489 122.653 14.047C122.268 13.5937 121.701 13.367 120.953 13.367C120.251 13.367 119.684 13.5937 119.253 14.047C118.834 14.489 118.624 15.1067 118.624 15.9V20.609C118.624 20.7223 118.585 20.8187 118.505 20.898C118.437 20.966 118.347 21 118.233 21H117.383ZM127.693 21C127.58 21 127.483 20.966 127.404 20.898C127.336 20.8187 127.302 20.7223 127.302 20.609V12.551C127.302 12.4377 127.336 12.347 127.404 12.279C127.483 12.1997 127.58 12.16 127.693 12.16H128.509C128.622 12.16 128.713 12.1997 128.781 12.279C128.849 12.347 128.883 12.4377 128.883 12.551V20.609C128.883 20.7223 128.849 20.8187 128.781 20.898C128.713 20.966 128.622 21 128.509 21H127.693ZM127.557 10.511C127.444 10.511 127.347 10.477 127.268 10.409C127.2 10.3297 127.166 10.2333 127.166 10.12V9.202C127.166 9.08867 127.2 8.998 127.268 8.93C127.347 8.85067 127.444 8.811 127.557 8.811H128.628C128.741 8.811 128.832 8.85067 128.9 8.93C128.979 8.998 129.019 9.08867 129.019 9.202V10.12C129.019 10.2333 128.979 10.3297 128.9 10.409C128.832 10.477 128.741 10.511 128.628 10.511H127.557ZM131.011 21C130.92 21 130.835 20.966 130.756 20.898C130.688 20.83 130.654 20.745 130.654 20.643C130.654 20.609 130.66 20.5693 130.671 20.524C130.694 20.4673 130.728 20.405 130.773 20.337L133.731 16.478L130.96 12.823C130.915 12.755 130.881 12.6983 130.858 12.653C130.847 12.6077 130.841 12.5623 130.841 12.517C130.841 12.415 130.875 12.33 130.943 12.262C131.011 12.194 131.096 12.16 131.198 12.16H132.065C132.19 12.16 132.28 12.194 132.337 12.262C132.405 12.3187 132.462 12.3753 132.507 12.432L134.768 15.373L137.029 12.449C137.074 12.3923 137.125 12.33 137.182 12.262C137.25 12.194 137.346 12.16 137.471 12.16H138.304C138.406 12.16 138.491 12.194 138.559 12.262C138.627 12.33 138.661 12.415 138.661 12.517C138.661 12.5623 138.65 12.6077 138.627 12.653C138.616 12.6983 138.587 12.755 138.542 12.823L135.737 16.512L138.695 20.337C138.74 20.405 138.769 20.4617 138.78 20.507C138.803 20.5523 138.814 20.5977 138.814 20.643C138.814 20.745 138.78 20.83 138.712 20.898C138.644 20.966 138.559 21 138.457 21H137.556C137.443 21 137.352 20.9717 137.284 20.915C137.216 20.8583 137.159 20.8017 137.114 20.745L134.717 17.634L132.32 20.745C132.275 20.7903 132.218 20.847 132.15 20.915C132.093 20.9717 132.003 21 131.878 21H131.011Z" fill="white"></path><defs><linearGradient id="paint0_linear_9492_66752" x1="3.41609" y1="1.60791" x2="15.1491" y2="21.8351" gradientUnits="userSpaceOnUse"><stop stop-color="#14BAB6"></stop><stop offset="0.5" stop-color="#00ADEE"></stop><stop offset="1" stop-color="#0095C4"></stop></linearGradient><linearGradient id="paint1_linear_9492_66752" x1="14.7513" y1="17.8341" x2="4.8558" y2="0.772125" gradientUnits="userSpaceOnUse"><stop stop-color="#FDFDFE" stop-opacity="0"></stop><stop offset="0.11" stop-color="#FDFDFE" stop-opacity="0.17"></stop><stop offset="0.3" stop-color="#FDFDFE" stop-opacity="0.42"></stop><stop offset="0.47" stop-color="#FDFDFE" stop-opacity="0.63"></stop><stop offset="0.64" stop-color="#FDFDFE" stop-opacity="0.79"></stop><stop offset="0.78" stop-color="#FDFDFE" stop-opacity="0.9"></stop><stop offset="0.91" stop-color="#FDFDFE" stop-opacity="0.97"></stop><stop offset="1" stop-color="#FDFDFE"></stop></linearGradient><linearGradient id="paint2_linear_9492_66752" x1="11.8526" y1="17.7283" x2="4.7215" y2="5.43518" gradientUnits="userSpaceOnUse"><stop stop-color="#FDFDFE" stop-opacity="0"></stop><stop offset="0.11" stop-color="#FDFDFE" stop-opacity="0.17"></stop><stop offset="0.3" stop-color="#FDFDFE" stop-opacity="0.42"></stop><stop offset="0.47" stop-color="#FDFDFE" stop-opacity="0.63"></stop><stop offset="0.64" stop-color="#FDFDFE" stop-opacity="0.79"></stop><stop offset="0.78" stop-color="#FDFDFE" stop-opacity="0.9"></stop><stop offset="0.91" stop-color="#FDFDFE" stop-opacity="0.97"></stop><stop offset="1" stop-color="#FDFDFE"></stop></linearGradient><linearGradient id="paint3_linear_9492_66752" x1="10.8774" y1="18.6276" x2="6.89697" y2="11.7664" gradientUnits="userSpaceOnUse"><stop stop-color="#FDFDFE" stop-opacity="0"></stop><stop offset="0.11" stop-color="#FDFDFE" stop-opacity="0.17"></stop><stop offset="0.3" stop-color="#FDFDFE" stop-opacity="0.42"></stop><stop offset="0.47" stop-color="#FDFDFE" stop-opacity="0.63"></stop><stop offset="0.64" stop-color="#FDFDFE" stop-opacity="0.79"></stop><stop offset="0.78" stop-color="#FDFDFE" stop-opacity="0.9"></stop><stop offset="0.91" stop-color="#FDFDFE" stop-opacity="0.97"></stop><stop offset="1" stop-color="#FDFDFE"></stop></linearGradient><linearGradient id="paint4_linear_9492_66752" x1="11.041" y1="20.0155" x2="8.56295" y2="15.743" gradientUnits="userSpaceOnUse"><stop stop-color="#FDFDFE" stop-opacity="0"></stop><stop offset="0.11" stop-color="#FDFDFE" stop-opacity="0.17"></stop><stop offset="0.3" stop-color="#FDFDFE" stop-opacity="0.42"></stop><stop offset="0.47" stop-color="#FDFDFE" stop-opacity="0.63"></stop><stop offset="0.64" stop-color="#FDFDFE" stop-opacity="0.79"></stop><stop offset="0.78" stop-color="#FDFDFE" stop-opacity="0.9"></stop><stop offset="0.91" stop-color="#FDFDFE" stop-opacity="0.97"></stop><stop offset="1" stop-color="#FDFDFE"></stop></linearGradient><linearGradient id="paint5_linear_9492_66752" x1="6.88518" y1="19.6265" x2="6.88518" y2="24.1373" gradientUnits="userSpaceOnUse"><stop stop-color="#231F20"></stop><stop offset="0.03" stop-color="#231F20" stop-opacity="0.9"></stop><stop offset="0.22" stop-color="#231F20" stop-opacity="0.4"></stop><stop offset="0.42" stop-color="#231F20" stop-opacity="0.1"></stop><stop offset="0.65" stop-color="#231F20" stop-opacity="0"></stop></linearGradient><linearGradient id="paint6_linear_9492_66752" x1="11.9335" y1="19.2004" x2="11.9335" y2="21.5005" gradientUnits="userSpaceOnUse"><stop stop-color="#231F20"></stop><stop offset="1" stop-color="#231F20" stop-opacity="0"></stop></linearGradient><linearGradient id="paint7_linear_9492_66752" x1="13.0382" y1="13.2405" x2="13.0382" y2="11.3601" gradientUnits="userSpaceOnUse"><stop stop-color="#231F20"></stop><stop offset="0.03" stop-color="#231F20" stop-opacity="0.95"></stop><stop offset="0.51" stop-color="#231F20" stop-opacity="0.26"></stop><stop offset="0.81" stop-color="#231F20" stop-opacity="0"></stop></linearGradient><linearGradient id="paint8_linear_9492_66752" x1="17.1307" y1="14.6282" x2="17.1307" y2="10.0791" gradientUnits="userSpaceOnUse"><stop stop-color="#231F20"></stop><stop offset="0.18" stop-color="#231F20" stop-opacity="0.48"></stop><stop offset="0.38" stop-color="#231F20" stop-opacity="0.12"></stop><stop offset="0.58" stop-color="#231F20" stop-opacity="0"></stop></linearGradient><linearGradient id="paint9_linear_9492_66752" x1="21.345" y1="18.213" x2="19.771" y2="15.4983" gradientUnits="userSpaceOnUse"><stop stop-color="#231F20"></stop><stop offset="1" stop-color="#231F20" stop-opacity="0"></stop></linearGradient><linearGradient id="paint10_linear_9492_66752" x1="22.6047" y1="17.4655" x2="20.2469" y2="13.3992" gradientUnits="userSpaceOnUse"><stop stop-color="#FDFDFE" stop-opacity="0"></stop><stop offset="0.11" stop-color="#FDFDFE" stop-opacity="0.17"></stop><stop offset="0.3" stop-color="#FDFDFE" stop-opacity="0.42"></stop><stop offset="0.47" stop-color="#FDFDFE" stop-opacity="0.63"></stop><stop offset="0.64" stop-color="#FDFDFE" stop-opacity="0.79"></stop><stop offset="0.78" stop-color="#FDFDFE" stop-opacity="0.9"></stop><stop offset="0.91" stop-color="#FDFDFE" stop-opacity="0.97"></stop><stop offset="1" stop-color="#FDFDFE"></stop></linearGradient><linearGradient id="paint11_linear_9492_66752" x1="16.5239" y1="16.7766" x2="19.9411" y2="14.8119" gradientUnits="userSpaceOnUse"><stop stop-color="#231F20"></stop><stop offset="0.31" stop-color="#231F20" stop-opacity="0.5"></stop><stop offset="0.67" stop-color="#231F20" stop-opacity="0.13"></stop><stop offset="1" stop-color="#231F20" stop-opacity="0"></stop></linearGradient></defs></svg>