<svg viewBox="0 0 80 80" xmlns="http://www.w3.org/2000/svg">
 <style type="text/css">
  .st0{fill-rule:evenodd;clip-rule:evenodd;fill:#ffffff;}
  .st1{fill-rule:evenodd;clip-rule:evenodd;fill:#ffffff;}
 </style>
 
 <path class="st1" d="M41,23.3780518v14.6089973h2V22.6730518c0-0.4220009-0.2659988-0.7990017-0.6640015-0.941 l-11.9999981-4.2860012c-0.217001-0.0769997-0.4549999-0.0769997-0.6720009,0l-12,4.2860012 C17.2660007,21.8740501,17,22.2510509,17,22.6730518v18.8570004c0,3.0139999,3.0809994,11.2859993,13,11.2859993v-2 c-9.0879993,0-11-7.7579994-11-9.2859993V23.3780518l10-3.5710011v22.1799984h2V19.8070507L41,23.3780518z M63.2480011,61.1910515 h-2c0,2.6479988-2.1539993,4.8019981-4.802002,4.8019981c-2.6469994,0-4.8009987-2.1539993-4.8009987-4.8019981h-2 c0,2.6479988-2.1549988,4.8019981-4.802002,4.8019981c-2.6489983,0-4.8029976-2.1539993-4.8029976-4.8019981h-2 c0,2.6479988-2.1539993,4.8019981-4.802002,4.8019981v2c2.4519997,0,4.6049995-1.3030014,5.802002-3.2549973 c1.1969986,1.9519958,3.3509979,3.2549973,5.8029976,3.2549973c2.4510002,0,4.6040001-1.3040009,5.802002-3.2549973 c1.1969986,1.9509964,3.3499985,3.2549973,5.8009987,3.2549973c2.4519997,0,4.6049995-1.3030014,5.802002-3.2549973 c1.1969986,1.9519958,3.3509979,3.2549973,5.8030014,3.2549973v-2 C65.4020004,65.9930496,63.2480011,63.8390503,63.2480011,61.1910515L63.2480011,61.1910515z M63.2480011,51.4040527h-2 c0,2.6479988-2.1539993,4.8029976-4.802002,4.8029976c-2.6469994,0-4.8009987-2.1549988-4.8009987-4.8029976h-2 c0,2.6479988-2.1549988,4.8029976-4.802002,4.8029976c-2.6489983,0-4.8029976-2.1549988-4.8029976-4.8029976h-2 c0,2.6479988-2.1539993,4.8029976-4.802002,4.8029976v2c2.4519997,0,4.6049995-1.3050003,5.802002-3.2550011 c1.1969986,1.9500008,3.3509979,3.2550011,5.8029976,3.2550011c2.4510002,0,4.6040001-1.3050003,5.802002-3.2550011 c1.1969986,1.9500008,3.3499985,3.2550011,5.8009987,3.2550011c2.4519997,0,4.6049995-1.3050003,5.802002-3.2550011 c1.1969986,1.9500008,3.3509979,3.2550011,5.8030014,3.2550011v-2 C65.4020004,56.2070503,63.2480011,54.0520515,63.2480011,51.4040527L63.2480011,51.4040527z M63.2480011,41.4850502h-2 c0,2.6480026-2.1539993,4.802002-4.802002,4.802002c-2.6469994,0-4.8009987-2.1539993-4.8009987-4.802002h-2 c0,2.6480026-2.1549988,4.802002-4.802002,4.802002c-2.6489983,0-4.8029976-2.1539993-4.8029976-4.802002h-2 c0,2.6480026-2.1539993,4.802002-4.802002,4.802002v2c2.4519997,0,4.6049995-1.3040009,5.802002-3.2550011 c1.1969986,1.9510002,3.3509979,3.2550011,5.8029976,3.2550011c2.4510002,0,4.6040001-1.3040009,5.802002-3.2550011 c1.1969986,1.9510002,3.3499985,3.2550011,5.8009987,3.2550011c2.4519997,0,4.6049995-1.3040009,5.802002-3.2550011 c1.1969986,1.9510002,3.3509979,3.2550011,5.8030014,3.2550011v-2 C65.4020004,46.2870522,63.2480011,44.1330528,63.2480011,41.4850502L63.2480011,41.4850502z M30.5160007,56.2050514v2 c-9.0290012,0-13.5340004-4.5250015-15.7240009-8.3199997C12.0780001,45.1810493,12,40.2380524,12,39.690052V19.6720505 c0-0.414999,0.2559996-0.7869987,0.6440001-0.9349995l17.5149994-6.6719999 c0.2369995-0.0889997,0.4979992-0.0869999,0.7320004,0.0080004L47.375,18.7450504c0.3779984,0.1529999,0.625,0.5200005,0.625,0.927 v18.3149986h-2V20.3460503l-15.4950008-6.2719994L14,20.3610516V39.690052 C14,40.3640518,14.1879997,56.2050514,30.5160007,56.2050514L30.5160007,56.2050514z"/>
</svg>
