<svg xmlns="http://www.w3.org/2000/svg" xmlns:xlink="http://www.w3.org/1999/xlink" viewBox="0 0 100 100"><defs><style>.cls-1,.cls-2{fill:#ffffff;}.cls-1,.cls-4,.cls-5{fill-rule:evenodd;}.cls-3{mask:url(#mask);}.cls-4{fill:#ffffff;}.cls-5{fill:#ffffff;}</style><mask id="mask" x="10.61" y="10.38" width="78.79" height="80.25" maskUnits="userSpaceOnUse"><g id="b"><path id="a" class="cls-1" d="M89.4,10.38V90.63H10.61V10.38Z"/></g></mask></defs><g class="cls-3"><path class="cls-1" d="M47.17,10.49c17.46-1.22,29,7.45,35.65,18,3.31,5.3,6.57,13.35,6.58,21.62a41.17,41.17,0,0,1-6.58,22.49,39.7,39.7,0,0,1-15,13.91c-10.39,5.32-24.93,5.46-34.46.34-10.6-5.7-18.75-13.85-21.79-28a43.15,43.15,0,0,1,.34-19.22,46,46,0,0,1,1.69-4.48A39,39,0,0,1,26.73,18.05a44.78,44.78,0,0,1,7.61-4.47,41.93,41.93,0,0,1,12.83-3.09"/></g><path class="cls-4" d="M50.25,76.52a26,26,0,1,1,25.6-26,25.82,25.82,0,0,1-25.6,26M75.42,24.57a32.39,32.39,0,0,0-11.49-7.73c-4.73-1.78-10.08-3.29-16.38-2.75-10,.88-17.11,5.46-22.47,10.82a35.76,35.76,0,0,0-8.45,13.73,37.68,37.68,0,0,0,.51,25.24,35.23,35.23,0,0,0,61,9.44,19.79,19.79,0,0,0,3.55-6c.79-1.68,1.17-2.82,1.53-3.43a31.51,31.51,0,0,0,2.53-11,36.32,36.32,0,0,0-10.3-28.32"/><path class="cls-5" d="M41.26,13.41A40.33,40.33,0,0,0,25.9,21.48c-6,4.76-9.77,11.4-12,19.39a39.77,39.77,0,0,0,2.53,26.44A37,37,0,0,0,56.8,87.91a36.13,36.13,0,0,0,20.27-11,39,39,0,0,0,9-35.7,43.05,43.05,0,0,0-4.39-11.33,38.82,38.82,0,0,0-4.4-5.5,35.58,35.58,0,0,0-29-12,34.71,34.71,0,0,0-6.93,1m5.91-2.92c17.46-1.22,29,7.45,35.65,18,3.32,5.3,6.57,13.35,6.58,21.62a41.17,41.17,0,0,1-6.58,22.49,39.63,39.63,0,0,1-15,13.91c-10.39,5.32-24.93,5.46-34.46.34-10.6-5.7-18.75-13.85-21.79-28a43.3,43.3,0,0,1,.34-19.22,46,46,0,0,1,1.69-4.48A39,39,0,0,1,26.73,18.05a44.78,44.78,0,0,1,7.61-4.47,41.93,41.93,0,0,1,12.83-3.09"/><path class="cls-1" d="M33.68,24.31h0a1.47,1.47,0,0,0-2.09-.39A1.49,1.49,0,0,0,31.33,26h0a1.45,1.45,0,0,0,2.08.39,1.49,1.49,0,0,0,.26-2.11M30,27h0a3.05,3.05,0,0,1,.74-4.26,2.91,2.91,0,0,1,4.19.58h0a3,3,0,0,1-.74,4.26A2.91,2.91,0,0,1,30,27m11.64-5.83-1.1-1.36-.12,1.76Zm-2.37-2.93,1.44-.48,4,4.78-1.61.53-.71-.85-2.08.67L40.32,24l-1.57.51Zm8.08,1.43V16.44H49v3.21c0,.83.41,1.23,1,1.23s1-.38,1-1.19l0-3.25,1.59,0v3.19A2.4,2.4,0,0,1,50,22.33a2.37,2.37,0,0,1-2.62-2.65m11.07-.56-1.63-.51.4-1.34L62,18.75l-.41,1.33L60,19.58l-1.26,4.18-1.51-.47Zm7.79,1.5,1.31.88-1.18,1.8,1.68,1.13,1.18-1.79,1.31.88-3.14,4.81-1.31-.89,1.19-1.83-1.68-1.13L64.42,26.3l-1.32-.88ZM66.31,76v0a1.45,1.45,0,0,0,2.1.29,1.48,1.48,0,0,0,.18-2.11h0a1.45,1.45,0,0,0-2.09-.31A1.49,1.49,0,0,0,66.31,76m3.53-2.84h0a3.06,3.06,0,0,1-.57,4.29A2.92,2.92,0,0,1,65.06,77h0a3,3,0,0,1,.58-4.28,2.91,2.91,0,0,1,4.21.42M58.46,79.42l1.15,1.32,0-1.77ZM61,82.25l-1.42.53-4.25-4.59,1.58-.6.74.82,2.06-.78,0-1.11,1.55-.58Zm-8.13-1.1L53,84.39l-1.59.07-.14-3.2c0-.84-.46-1.21-1.1-1.19s-1,.43-1,1.24l.14,3.23-1.6.08-.14-3.19a2.39,2.39,0,0,1,2.54-2.79,2.36,2.36,0,0,1,2.75,2.51M41.74,82.21l1.64.45L43,84l-4.8-1.32.35-1.36,1.65.45,1.12-4.21,1.52.41ZM34,81l-1.34-.82,1.09-1.85L32,77.3l-1.1,1.86-1.34-.82,2.92-5,1.34.83-1.11,1.88,1.74,1,1.1-1.87,1.35.82Z"/><path class="cls-5" d="M39.92,56l9.71-8c1.07-.88,3.08-2.93,3.08-4.63a2.88,2.88,0,0,0-3.08-3.05c-2.4,0-4.07,2.08-4.78,4.23l-5-2.6c1.24-3.24,4.65-6.33,10.25-6.33,7.47,0,9.59,4.4,9.59,7.36s-1.89,5.31-4.39,7L48.7,54.55v.07h11v5.86H39.92Z"/></svg>
